<svg width="270" height="270" xmlns="http://www.w3.org/2000/svg">

 <g id="imagebot_2">
  <path transform="translate(0 28.75) matrix(1 0 0 1 -216.03 -175.529)" stroke-linejoin="round" stroke="#000000" stroke-linecap="round" stroke-width="4" fill="#ffcc00" d="M351.27,208.57C328.48,208.57 309.99,215.53 296.39,227.16C295.82,226.73 295.05,226.35 294.05,225.91C238.54,215.3 219.44,251 218.74,256.66C218.03,262.32 257.25,271.14 278.11,250.28C278.38,250.01 278.57,249.83 278.83,249.57C272.66,261.59 269.42,275.54 269.42,290.41C269.42,335.58 325.55,372.25 351.27,372.25C377.98,372.25 433.11,335.58 433.11,290.41C433.11,275.37 429.65,261.27 423.17,249.16C423.58,249.57 423.88,249.86 424.3,250.28C445.16,271.14 484.38,262.32 483.67,256.66C482.97,251 463.9,215.3 408.39,225.91C407.22,226.43 406.31,226.86 405.74,227.38C392,215.63 373.53,208.57 351.27,208.57z" id="imagebot_24"/>
  <path transform="translate(0 28.75) matrix(1 0 0 1 -216.03 -175.529)" stroke-linejoin="round" stroke="#000000" stroke-linecap="round" stroke-width="4" fill="#ffffff" d="M347.64,278.41C347.65,290.93 337.5,301.08 324.98,301.08S302.31,290.93 302.32,278.41C302.31,265.89 312.46,255.74 324.98,255.74S347.65,265.89 347.64,278.41z" id="imagebot_23"/>
  <path transform="translate(0 28.75) matrix(1 0 0 1 -216.03 -175.529)" stroke-linejoin="round" stroke="#000000" stroke-linecap="round" stroke-width="4" fill="#ffffff" d="M400.38,278.41C400.38,290.93 390.23,301.08 377.71,301.08S355.05,290.93 355.05,278.41S365.19,255.74 377.71,255.74S400.38,265.89 400.38,278.41z" id="imagebot_22"/>
  <path transform="translate(0 28.75) matrix(1 0 0 1 -216.03 -175.529)" fill="#000000" d="M380.23,282.41C380.23,286.59 376.85,289.97 372.68,289.97C368.5,289.97 365.12,286.59 365.12,282.41C365.12,278.24 368.5,274.86 372.68,274.86C376.85,274.86 380.23,278.24 380.23,282.41z" id="imagebot_21"/>
  <path transform="translate(0 28.75) matrix(1 0 0 1 -216.03 -175.529)" fill="#000000" d="M338.2,282.41C338.2,286.59 334.82,289.97 330.65,289.97C326.47,289.97 323.09,286.59 323.09,282.41C323.09,278.24 326.47,274.86 330.65,274.86C334.82,274.86 338.2,278.24 338.2,282.41z" id="imagebot_20"/>
  <path transform="translate(0 28.75) matrix(1 0 0 1 -216.03 -175.529)" fill="#000000" fill-opacity="0.31373" d="M425.69,251.49C427.44,259.12 428.31,267.21 428.31,275.62C428.31,320.79 373.19,357.46 346.47,357.46C325.76,357.46 285.37,333.7 270.41,300.87C278.02,341.11 327.58,372.24 351.28,372.24C378,372.24 433.12,335.57 433.12,290.4C433.12,276.32 430.71,263.06 425.69,251.49z" id="imagebot_19"/>
  <path transform="translate(0 28.75) matrix(1 0 0 1 -216.03 -175.529)" fill="#000000" d="M367.87,343.04C365.58,347.02 361.37,348.88 358.47,347.21C355.58,345.54 355.09,340.96 357.38,336.99S363.88,331.15 366.78,332.82C369.67,334.5 370.16,339.07 367.87,343.04z" id="imagebot_16"/>
  <path transform="translate(0 28.75) matrix(1 0 0 1 -216.03 -175.529)" fill="#000000" d="M335.13,343.04C337.42,347.02 341.63,348.88 344.53,347.21C347.42,345.54 347.91,340.96 345.62,336.99S339.12,331.15 336.22,332.82C333.33,334.5 332.84,339.07 335.13,343.04z" id="imagebot_15"/>
  <path transform="translate(0 28.75) matrix(1 0 0 1 -216.03 -175.529)" fill-rule="evenodd" stroke="#000000" stroke-linecap="round" stroke-width="4" fill="#ffcc00" d="M317.52,224.48C323.17,214.23 311.51,201.86 311.51,201.86L328.83,197.61S326.36,213.17 335.55,218.83" id="imagebot_14"/>
  <path transform="translate(0 28.75) matrix(1 0 0 1 -216.03 -175.529)" stroke-linejoin="round" stroke="#000000" stroke-linecap="round" stroke-width="4" fill="#784421" d="M 334.11800549316405 195.4399938964844 A 15.38 15.38 0 1 1 303.3590054931641 195.4399938964844 A 15.38 15.38 0 1 1 334.11800549316405 195.4399938964844 z" id="imagebot_13"/>
  <path transform="translate(0 28.75) matrix(1 0 0 1 -216.03 -175.529)" stroke-linejoin="round" fill-rule="evenodd" stroke="#000000" stroke-width="4" fill="#d4aa00" d="M418.59,232.5C454.37,227.93 471.11,249.47 472.42,252.73C473.74,255.99 437.3,262.84 418.59,232.5z" id="imagebot_12"/>
  <path transform="translate(0 28.75) matrix(1 0 0 1 -216.03 -175.529)" fill-rule="evenodd" stroke="#000000" stroke-linecap="round" stroke-width="4" fill="#ffcc00" d="M384.69,224.48C379.04,214.23 390.7,201.86 390.7,201.86L373.38,197.61S375.85,213.17 366.66,218.83" id="imagebot_11"/>
  <path transform="translate(0 28.75) matrix(1 0 0 1 -216.03 -175.529)" stroke-linejoin="round" stroke="#000000" stroke-linecap="round" stroke-width="4" fill="#784421" d="M 398.117990234375 195.4399938964844 A 15.38 15.38 0 1 1 367.358990234375 195.4399938964844 A 15.38 15.38 0 1 1 398.117990234375 195.4399938964844 z" id="imagebot_10"/>
  <path transform="translate(0 28.75) matrix(1 0 0 1 -216.03 -175.529)" stroke-linejoin="round" fill-rule="evenodd" stroke="#000000" stroke-width="4" fill="#d4aa00" d="M283.46,232.5C247.68,227.93 230.94,249.47 229.62,252.73C228.31,255.99 264.75,262.84 283.46,232.5z" id="imagebot_3"/>
  <title>imagebot_2</title>
 </g>
 <metadata>image/svg+xmlOpenclipartCartoon giraffe2008-07-07T11:40:13Cartoon giraffe sitting, front view. Nice 20 minute tutorial video for drawing the giraffe in Inkscape &lt;a target="_blank" href="https://www.youtube.com/watch?v=qZt9J_AUYZI"&gt;https://www.youtube.com/watch?v=qZt9J_AUYZI&lt;/a&gt;https://openclipart.org/detail/17628/cartoon-giraffe-by-lemmlinglemmlinganimalcartooncolourfunnygiraffemammal</metadata>
</svg>